<svg width="1173" height="750" viewBox="0 0 1173 750" fill="none" xmlns="http://www.w3.org/2000/svg">
<path d="M0 330C0 313.431 13.4315 300 30 300H1143C1159.57 300 1173 313.431 1173 330V420C1173 436.569 1159.57 450 1143 450H30C13.4315 450 0 436.569 0 420V330Z" fill="black"/>
<path d="M0 30C0 13.4315 13.4315 0 30 0H1143C1159.57 0 1173 13.4315 1173 30V120C1173 136.569 1159.57 150 1143 150H30C13.4315 150 0 136.569 0 120V30Z" fill="black"/>
<path d="M0 630C0 613.431 13.4315 600 30 600H1143C1159.57 600 1173 613.431 1173 630V720C1173 736.569 1159.57 750 1143 750H30C13.4315 750 0 736.569 0 720V630Z" fill="black"/>
</svg>
